HIERARCHY
ROOT Hips
{
	OFFSET 0.00000 0.00000 0.00000
	CHANNELS 6 Xposition Yposition Zposition Yrotation Zrotation Xrotation 
	JOINT Lumbar
	{
		OFFSET 0 0 0
		CHANNELS 3 Zrotation Xrotation Yrotation
		JOINT Neck
		{
			OFFSET 0.00 0.2701 0.00
			CHANNELS 3 Zrotation Xrotation Yrotation
			End Site
			{
				OFFSET 0.00 0.1379 0.00
			}
		}
		JOINT RightShoulder
		{
			OFFSET 0.0119 0.2289 0.1181
			CHANNELS 3 Zrotation Xrotation Yrotation
			JOINT RightElbow
			{
				OFFSET 0.00 -0.1475 0.00
				CHANNELS 2 Zrotation Yrotation
				JOINT RightWrist
				{
					OFFSET 0.00 -0.1605 0.00
					CHANNELS 2 Zrotation Xrotation
					End Site
					{
						OFFSET 0.0040 -0.1068 0.0006
					}
				}
			}
		}
		JOINT LeftShoulder
		{
			OFFSET 0.0119 0.2289 -0.1181
			CHANNELS 3 Zrotation Xrotation Yrotation
			JOINT LeftElbow
			{
				OFFSET 0.00 -0.1475 0.00
				CHANNELS 2 Zrotation Yrotation
				JOINT LeftWrist
				{
					OFFSET 0.00 -0.1605 0.00
					CHANNELS 2 Zrotation Xrotation
					End Site
					{
						OFFSET 0.0040 -0.1068 -0.0006
					}
				}
			}
		}
	}
	JOINT RightHip
	{
		OFFSET 0.0316 -0.0424 0.0458
		CHANNELS 3 Zrotation Xrotation Yrotation
		JOINT RightKnee
		{
			OFFSET 0.00 -0.2438 0.00
			CHANNELS 1 Zrotation
			JOINT RightAnkle
			{
				OFFSET 0.00 -0.2449 0.00
				CHANNELS 3 Zrotation Xrotation Yrotation
				End Site
				{
					OFFSET 0.1237 -0.0542 0.0051
				}
			}
		}
	}
	JOINT LeftHip
	{
		OFFSET 0.0316 -0.0424 -0.0458
		CHANNELS 3 Zrotation Xrotation Yrotation
		JOINT LeftKnee
		{
			OFFSET 0.00 -0.2438 0.00
			CHANNELS 1 Zrotation
			JOINT LeftAnkle
			{
				OFFSET 0.00 -0.2449 0.00
				CHANNELS 3 Zrotation Xrotation Yrotation
				End Site
				{
					OFFSET 0.1237 -0.0542 -0.0051
				}
			}
		}
	}
}
MOTION
Frames: 28
Frame Time: 0.02
-0.00058 -0.00014 -0.00035 -181.50572 -39.71114 -3.42634 49.47534 2.36201 -1.82524 -18.00377 -1.9696 -1.65585 40.84431 -104.92736 55.63085 7.41333 94.10191 9.58271 -2.5237 22.47234 103.14104 -55.63648 7.48116 -88.63855 7.15862 0.31868 43.95131 -2.3889 -4.31281 -21.42263 -6.91523 -2.9707 -3.71444 47.58573 10.10686 5.61552 -26.87299 -6.83634 1.57805 3.03506
-0.00041 -0.0001 -0.00019 -181.56038 -39.70798 -3.44575 49.44575 2.37782 -1.81785 -17.9991 -1.95373 -1.65612 40.91085 -104.88514 55.63117 7.40826 94.09276 9.58129 -2.48677 22.48375 103.17703 -55.6358 7.51272 -88.59947 7.15575 0.29365 43.97845 -2.48571 -4.73291 -21.44876 -6.90834 -2.93387 -3.69064 47.59955 10.07609 5.52364 -26.88211 -6.83662 1.59724 3.04338
-0.00023 -7e-05 -3e-05 -181.61524 -39.7048 -3.46512 49.4161 2.39366 -1.8103 -17.99444 -1.93784 -1.6564 40.97715 -104.84294 55.6315 7.40335 94.08098 9.57987 -2.44938 22.49559 103.2129 -55.63513 7.54433 -88.5604 7.15278 0.26859 44.00566 -2.58241 -5.15202 -21.47487 -6.90147 -2.89706 -3.66688 47.61332 10.04528 5.43205 -26.89123 -6.8369 1.61641 3.0517
-6e-05 -4e-05 0.00013 -181.66979 -39.70164 -3.48447 49.38657 2.40944 -1.8029 -17.98979 -1.92202 -1.65667 41.04343 -104.80084 55.63183 7.3983 94.07131 9.57847 -2.41243 22.50703 103.24879 -55.63445 7.5758 -88.5215 7.14993 0.24363 44.03273 -2.67895 -5.57088 -21.50093 -6.89459 -2.86033 -3.64315 47.62709 10.01457 5.34042 -26.90032 -6.83717 1.63554 3.06
0.00011 -0 0.00029 -181.72401 -39.6985 -3.50387 49.35718 2.42518 -1.79575 -17.98514 -1.90624 -1.65694 41.11011 -104.75873 55.63216 7.39309 94.06563 9.57702 -2.37625 22.51791 103.28478 -55.63377 7.60722 -88.48241 7.14714 0.21873 44.0597 -2.77555 -5.99061 -21.52699 -6.88769 -2.82361 -3.6194 47.64092 9.98398 5.24863 -26.90942 -6.83745 1.65467 3.06828
0.00029 3e-05 0.00046 -181.78021 -39.69523 -3.52318 49.32697 2.44119 -1.78737 -17.98046 -1.89012 -1.65722 41.17569 -104.71632 55.63248 7.38884 94.04121 9.57564 -2.33639 22.53176 103.32038 -55.6331 7.63923 -88.44329 7.14375 0.19333 44.0874 -2.87246 -6.40835 -21.5532 -6.88088 -2.78663 -3.59563 47.65458 9.95272 5.15752 -26.91857 -6.83775 1.67392 3.07665
0.00046 6e-05 0.00061 -181.83236 -39.69223 -3.54263 49.29845 2.45665 -1.78143 -17.97584 -1.87473 -1.65749 41.24303 -104.67464 55.63281 7.38251 94.05358 9.57422 -2.30371 22.53955 103.35677 -55.63241 7.6699 -88.4048 7.14176 0.169 44.11357 -2.96859 -6.82967 -21.57907 -6.87389 -2.75021 -3.57191 47.66855 9.92279 5.06483 -26.9276 -6.83799 1.69292 3.08487
0.00063 0.0001 0.00078 -181.88825 -39.68899 -3.56196 49.26834 2.4726 -1.77332 -17.97118 -1.85861 -1.65777 41.30944 -104.63217 55.63314 7.37837 94.03375 9.57267 -2.26487 22.55305 103.39237 -55.63172 7.70203 -88.36477 7.13814 0.14363 44.14121 -3.0655 -7.24765 -21.60527 -6.86708 -2.71328 -3.54815 47.68227 9.89172 4.97417 -26.93676 -6.83829 1.7121 3.09319
0.00081 0.00013 0.00095 -181.94875 -39.6854 -3.58112 49.23635 2.48926 -1.76218 -17.96639 -1.84181 -1.65805 41.372 -104.58913 55.63345 7.37585 93.96724 9.57162 -2.21656 22.57313 103.42725 -55.63112 7.7351 -88.32665 7.13387 0.11715 44.17046 -3.16321 -7.6619 -21.63185 -6.86045 -2.67567 -3.52433 47.69552 9.85887 4.88368 -26.94602 -6.83865 1.73174 3.10177
0.00096 0.00016 0.00107 -181.98287 -39.68366 -3.60121 49.21537 2.50217 -1.76733 -17.96209 -1.82955 -1.65829 41.44855 -104.55057 55.63382 7.36085 94.14722 9.56969 -2.2169 22.55417 103.46703 -55.63029 7.7602 -88.28891 7.13735 0.09754 44.18986 -3.25589 -8.09872 -21.65615 -6.85264 -2.6418 -3.50083 47.71099 9.83511 4.78528 -26.95453 -6.83865 1.74946 3.10926
0.00118 0.0002 0.00131 -182.07251 -39.67814 -3.61936 49.17108 2.52276 -1.73887 -17.95695 -1.80734 -1.65862 41.50079 -104.5018 55.63407 7.37419 93.82159 9.56834 -2.11838 22.61826 103.49599 -55.62973 7.80374 -88.24312 7.12193 0.06316 44.23042 -3.35943 -8.48711 -21.68531 -6.8474 -2.60017 -3.47667 47.72208 9.79289 4.708 -26.96471 -6.83939 1.77075 3.1188
0.0016 0.00025 0.00187 -182.31745 -39.6612 -3.632 49.06262 2.56665 -1.61116 -17.94792 -1.76049 -1.65924 41.4449 -104.43012 55.63392 7.44944 91.97427 9.57876 -1.71459 22.90804 103.49868 -55.63071 7.88528 -88.23668 7.07589 -0.00956 44.32667 -3.49105 -8.74799 -21.72756 -6.8487 -2.53596 -3.45041 47.71849 9.69341 4.65183 -26.9787 -6.8423 1.80606 3.13603
0.0021 0.00031 0.00257 -182.61767 -39.64066 -3.64275 48.93077 2.61779 -1.45111 -17.93831 -1.70315 -1.65995 41.37369 -104.34665 55.63361 7.55605 89.64339 9.58771 -1.21779 23.28216 103.48969 -55.63116 7.98776 -88.21225 7.00744 -0.09727 44.44467 -3.63389 -8.95908 -21.77473 -6.85268 -2.46419 -3.42355 47.71104 9.5764 4.62294 -26.99448 -6.84591 1.84426 3.15497
0.00258 0.00036 0.00322 -182.89058 -39.62243 -3.65443 48.80975 2.66423 -1.31029 -17.93003 -1.64884 -1.66061 41.33475 -104.26603 55.63345 7.65867 87.62238 9.59086 -0.78579 23.61849 103.48402 -55.63214 8.08874 -88.15406 6.93476 -0.17985 44.55415 -3.77271 -9.18968 -21.81977 -6.85577 -2.3967 -3.39715 47.70702 9.47198 4.60659 -27.00995 -6.84913 1.87827 3.17171
0.00302 0.00042 0.00379 -183.1725 -39.60132 -3.66568 48.68787 2.71683 -1.14978 -17.91737 -1.60179 -1.66129 41.18313 -104.19844 55.6331 7.71811 85.22293 9.62195 -0.25864 23.95058 103.48744 -55.63452 8.15551 -88.26678 6.92084 -0.25636 44.65762 -3.90702 -9.43405 -21.86435 -6.85744 -2.32559 -3.36993 47.69572 9.34889 4.48815 -27.02333 -6.85273 1.92408 3.1943
0.00354 0.00047 0.00456 -183.44916 -39.58542 -3.67754 48.56219 2.75806 -1.02324 -17.91355 -1.53721 -1.66196 41.26984 -104.09783 55.63291 7.8748 83.49335 9.5937 0.09257 24.31417 103.46827 -55.63057 8.299 -88.02691 6.7818 -0.34783 44.77913 -4.05334 -9.63703 -21.91109 -6.86273 -2.26028 -3.34432 47.69893 9.25944 4.58491 -27.04142 -6.85563 1.94643 3.20533
0.00429 0.00054 0.0058 -183.69428 -39.5842 -3.69026 48.43215 2.76822 -0.99326 -17.93553 -1.42634 -1.66263 41.9395 -103.9337 55.63324 8.29144 83.76926 9.40363 -0.06831 24.72124 103.3967 -55.63697 8.64544 -86.75379 6.28098 -0.48744 44.94194 -4.23028 -9.74557 -21.96223 -6.8771 -2.21241 -3.32303 47.74101 9.27657 5.30287 -27.07262 -6.85698 1.89948 3.18219
0.00512 0.00061 0.00724 -183.93288 -39.58846 -3.70393 48.29896 2.76623 -0.99957 -17.96623 -1.29832 -1.66329 42.85227 -103.73111 55.63251 8.80366 84.73108 9.1501 -0.40967 25.16157 103.30107 -55.6316 9.06939 -85.13974 5.65946 -0.63958 45.12277 -4.41885 -9.81262 -22.01538 -6.89506 -2.17072 -3.30346 47.79826 9.32642 6.23031 -27.10838 -6.8575 1.82954 3.14769
0.00591 0.00068 0.0086 -184.17664 -39.59061 -3.71801 48.16699 2.76849 -0.99266 -17.9921 -1.17845 -1.66396 43.72076 -103.53113 55.63377 9.27446 85.35204 8.92895 -0.66509 25.60135 103.21234 -55.61372 9.45991 -83.72208 5.10704 -0.77914 45.2974 -4.60194 -9.8938 -22.06796 -6.91153 -2.12646 -3.2833 47.84994 9.35511 7.03963 -27.14169 -6.85803 1.77264 3.11958
0.00669 0.00076 0.0099 -184.41279 -39.59103 -3.72839 48.03528 2.77661 -0.97079 -18.02148 -1.05664 -1.66462 44.35856 -103.39758 55.6336 9.74346 86.07126 8.70711 -0.93044 25.98165 103.14196 -55.67215 9.84226 -82.12331 4.49219 -0.94845 45.46429 -4.78628 -9.99373 -22.11956 -6.92749 -2.08089 -3.2623 47.89576 9.40969 7.94615 -27.17665 -6.86013 1.70491 3.08635
0.00752 0.00082 0.01137 -184.66287 -39.59639 -3.74684 47.90237 2.76927 -0.98916 -18.04576 -0.93502 -1.66529 45.47292 -103.11158 55.62994 10.23144 86.76488 8.45372 -1.22339 26.49378 103.02564 -55.56767 10.26144 -80.82791 3.98086 -1.05838 45.65143 -4.97059 -10.04473 -22.17325 -6.94537 -2.03967 -3.24347 47.95759 9.41843 8.70026 -27.20926 -6.85875 1.65422 3.06107
0.00851 0.00083 0.01324 -184.94986 -39.6143 -3.78665 47.76874 2.72466 -1.10978 -18.05278 -0.81737 -1.66598 48.37456 -102.45343 55.64115 10.82007 87.13023 8.2928 -1.50928 27.32055 102.80382 -54.99265 10.74904 -80.39228 3.76932 -1.0038 45.88909 -5.1524 -9.97729 -22.2352 -6.96737 -2.00842 -3.22999 48.05899 9.29197 8.97578 -27.23396 -6.84803 1.6566 3.06056
0.00956 0.00083 0.01528 -185.25157 -39.63702 -3.83481 47.63376 2.66444 -1.26984 -18.0545 -0.70068 -1.66668 51.64901 -101.63299 55.62433 11.41889 87.4597 8.0792 -1.82188 28.26455 102.53169 -54.23524 11.27358 -80.28337 3.66922 -0.88917 46.14673 -5.33365 -9.86151 -22.29859 -6.99127 -1.98141 -3.21864 48.17632 9.11844 9.09129 -27.25619 -6.83385 1.67689 3.06844
0.01059 0.00083 0.01725 -185.54811 -39.6573 -3.87948 47.49835 2.60976 -1.41193 -18.05942 -0.58409 -1.66737 54.40391 -100.86472 55.62989 11.95586 87.87411 7.77263 -2.15175 29.20885 102.27514 -53.60631 11.79057 -80.0676 3.52832 -0.79946 46.39558 -5.51486 -9.7633 -22.35932 -7.01447 -1.95294 -3.20649 48.28681 8.96701 9.28473 -27.27975 -6.8212 1.6887 3.0724
0.0116 0.00083 0.01919 -185.83735 -39.67858 -3.92246 47.36732 2.56123 -1.5553 -18.06155 -0.46466 -1.66807 58.6428 -100.19807 55.67697 12.70526 88.04562 7.92663 -2.37449 30.01665 102.05703 -52.8799 12.27144 -79.67195 3.34131 -0.71741 46.64328 -5.69778 -9.68043 -22.42857 -7.03699 -1.923 -3.19379 48.39557 8.81388 9.46538 -27.30257 -6.80866 1.70098 3.07635
0.01266 0.00083 0.02123 -186.14623 -39.69916 -3.97147 47.22676 2.49634 -1.70509 -18.06778 -0.3516 -1.66875 59.87947 -99.26686 55.52774 13.05414 88.67652 7.14829 -2.8108 31.0252 101.73655 -52.19369 12.8351 -79.7233 3.2788 -0.6085 46.89858 -5.87678 -9.55687 -22.48041 -7.06147 -1.89672 -3.18258 48.51223 8.65251 9.62958 -27.32631 -6.79514 1.71704 3.08255
0.01383 0.00078 0.0235 -186.49872 -39.71413 -4.03057 47.06116 2.39 -1.86104 -18.08917 -0.2559 -1.66933 52.71664 -97.77524 55.76461 11.93659 90.83824 3.47093 -3.94842 33.5487 101.23975 -52.7354 13.62178 -81.01807 3.52947 -0.40878 47.16426 -6.04542 -9.31415 -22.48376 -7.08968 -1.88228 -3.17616 48.64059 8.48145 9.80788 -27.35309 -6.77916 1.73732 3.09201
0.01505 0.00071 0.02586 -186.872 -39.72872 -4.09633 46.88578 2.2678 -2.02213 -18.11413 -0.16669 -1.66989 42.53217 -96.00122 55.65987 10.47635 93.41717 -1.08376 -5.27884 36.11321 100.62609 -53.15733 14.49087 -82.7391 3.90238 -0.18924 47.43802 -6.20989 -9.03571 -22.46956 -7.12003 -1.87085 -3.17094 48.77745 8.30355 9.97116 -27.38086 -6.76243 1.76116 3.10362
